<svg width="178" height="52" viewBox="0 0 178 52" fill="none" xmlns="http://www.w3.org/2000/svg">
<path d="M178 46.7875C178 49.6673 175.709 52 172.874 52H5.13243C2.2995 52 0 49.6673 0 46.7875V5.21933C0 2.34087 2.2995 0 5.13243 0H172.873C175.709 0 177.999 2.34087 177.999 5.21933L178 46.7875Z" fill="#333333"/>
<path d="M39.1707 25.738C39.132 21.5482 42.6894 19.5097 42.852 19.4148C40.8374 16.551 37.7147 16.1597 36.6174 16.1285C33.9947 15.8594 31.4507 17.6586 30.1147 17.6586C28.752 17.6586 26.6947 16.1545 24.4774 16.1987C21.624 16.2416 18.9547 17.8523 17.4907 20.3534C14.4694 25.4533 16.7227 32.9478 19.6174 37.0701C21.0654 39.089 22.7574 41.3432 24.972 41.2639C27.1387 41.1768 27.948 39.9171 30.5627 39.9171C33.1534 39.9171 33.9134 41.2639 36.172 41.2132C38.4974 41.1768 39.9614 39.1852 41.3587 37.1481C43.032 34.8341 43.704 32.5553 43.7307 32.4382C43.676 32.42 39.2147 30.7599 39.1707 25.738Z" fill="white"/>
<path d="M34.904 13.4167C36.0694 11.9958 36.8667 10.0627 36.6454 8.10095C34.9587 8.17375 32.8494 9.23845 31.6347 10.6282C30.56 11.8528 29.6 13.86 29.848 15.7476C31.7427 15.8854 33.688 14.8155 34.904 13.4167Z" fill="white"/>
<path d="M70.5266 40.974H67.4986L65.84 35.8923H60.0746L58.4946 40.974H55.5466L61.2586 23.6736H64.7866L70.5266 40.974ZM65.34 33.7603L63.84 29.2428C63.6813 28.7813 63.384 27.6945 62.9453 25.9837H62.892C62.7173 26.7195 62.436 27.8063 62.0493 29.2428L60.576 33.7603H65.34Z" fill="white"/>
<path d="M85.216 34.5833C85.216 36.7049 84.628 38.3819 83.452 39.613C82.3987 40.7089 81.0907 41.2562 79.5293 41.2562C77.844 41.2562 76.6333 40.666 75.896 39.4856H75.8427V46.0571H73V32.606C73 31.2722 72.964 29.9033 72.8947 28.4993H75.3947L75.5533 30.4766H75.6067C76.5547 28.9868 77.9933 28.2432 79.924 28.2432C81.4333 28.2432 82.6933 28.8243 83.7013 29.9878C84.712 31.1526 85.216 32.684 85.216 34.5833ZM82.32 34.6847C82.32 33.4705 82.04 32.4695 81.4773 31.6817C80.8627 30.8601 80.0373 30.4493 79.0027 30.4493C78.3013 30.4493 77.664 30.6781 77.0947 31.1292C76.524 31.5842 76.1506 32.1783 75.976 32.9141C75.888 33.2573 75.844 33.5381 75.844 33.7591V35.8391C75.844 36.7465 76.1293 37.5122 76.7 38.1375C77.2707 38.7628 78.012 39.0748 78.924 39.0748C79.9947 39.0748 80.828 38.6718 81.424 37.8684C82.0213 37.0637 82.32 36.0029 82.32 34.6847Z" fill="white"/>
<path d="M99.9319 34.5833C99.9319 36.7049 99.3439 38.3819 98.1666 39.613C97.1146 40.7089 95.8066 41.2562 94.2453 41.2562C92.5599 41.2562 91.3493 40.666 90.6133 39.4856H90.5599V46.0571H87.7173V32.606C87.7173 31.2722 87.6813 29.9033 87.6119 28.4993H90.1119L90.2706 30.4766H90.3239C91.2706 28.9868 92.7093 28.2432 94.6413 28.2432C96.1493 28.2432 97.4093 28.8243 98.4199 29.9878C99.4266 31.1526 99.9319 32.684 99.9319 34.5833ZM97.0359 34.6847C97.0359 33.4705 96.7546 32.4695 96.1919 31.6817C95.5773 30.8601 94.7546 30.4493 93.7186 30.4493C93.0159 30.4493 92.3799 30.6781 91.8093 31.1292C91.2386 31.5842 90.8666 32.1783 90.6919 32.9141C90.6053 33.2573 90.5599 33.5381 90.5599 33.7591V35.8391C90.5599 36.7465 90.8453 37.5122 91.4133 38.1375C91.9839 38.7615 92.7253 39.0748 93.6399 39.0748C94.7106 39.0748 95.5439 38.6718 96.1399 37.8684C96.7373 37.0637 97.0359 36.0029 97.0359 34.6847Z" fill="white"/>
<path d="M116.385 36.1225C116.385 37.5941 115.861 38.7914 114.809 39.7157C113.653 40.7258 112.044 41.2302 109.976 41.2302C108.067 41.2302 106.536 40.8714 105.377 40.1525L106.036 37.8424C107.284 38.5782 108.653 38.9474 110.145 38.9474C111.216 38.9474 112.049 38.7108 112.648 38.2402C113.244 37.7696 113.541 37.1378 113.541 36.35C113.541 35.648 113.296 35.0565 112.804 34.5768C112.315 34.0971 111.497 33.6512 110.356 33.2391C107.249 32.1094 105.697 30.4545 105.697 28.2783C105.697 26.8561 106.241 25.69 107.331 24.7826C108.416 23.8739 109.864 23.4202 111.675 23.4202C113.289 23.4202 114.631 23.6945 115.701 24.2418L114.991 26.5012C113.991 25.9708 112.86 25.7056 111.595 25.7056C110.595 25.7056 109.813 25.9461 109.253 26.4245C108.78 26.8522 108.543 27.3735 108.543 27.991C108.543 28.6748 108.813 29.2403 109.357 29.6849C109.831 30.0957 110.691 30.5403 111.939 31.02C113.465 31.6193 114.587 32.32 115.308 33.1234C116.027 33.9242 116.385 34.9265 116.385 36.1225Z" fill="white"/>
<path d="M125.784 30.5793H122.651V36.636C122.651 38.1765 123.203 38.9461 124.309 38.9461C124.817 38.9461 125.239 38.9032 125.572 38.8174L125.651 40.9221C125.091 41.1262 124.353 41.2289 123.44 41.2289C122.317 41.2289 121.44 40.8948 120.807 40.2279C120.176 39.5597 119.859 38.4391 119.859 36.8648V30.5767H117.992V28.4967H119.859V26.2126L122.651 25.391V28.4967H125.784V30.5793Z" fill="white"/>
<path d="M139.921 34.634C139.921 36.5515 139.359 38.1258 138.236 39.3569C137.059 40.6244 135.496 41.2562 133.548 41.2562C131.671 41.2562 130.176 40.6491 129.061 39.4349C127.947 38.2207 127.389 36.688 127.389 34.8407C127.389 32.9076 127.963 31.3242 129.113 30.0931C130.261 28.8607 131.811 28.2445 133.759 28.2445C135.636 28.2445 137.147 28.8516 138.287 30.0671C139.377 31.2462 139.921 32.7685 139.921 34.634ZM136.972 34.7237C136.972 33.5732 136.72 32.5865 136.209 31.7636C135.613 30.7678 134.761 30.2712 133.657 30.2712C132.515 30.2712 131.647 30.7691 131.051 31.7636C130.54 32.5878 130.288 33.5901 130.288 34.7757C130.288 35.9262 130.54 36.9129 131.051 37.7345C131.665 38.7303 132.524 39.2269 133.632 39.2269C134.717 39.2269 135.569 38.7199 136.184 37.7085C136.708 36.87 136.972 35.8729 136.972 34.7237Z" fill="white"/>
<path d="M149.161 30.9368C148.88 30.8861 148.58 30.8601 148.265 30.8601C147.265 30.8601 146.492 31.228 145.948 31.9651C145.475 32.6151 145.237 33.4367 145.237 34.4286V40.9741H142.396L142.423 32.4279C142.423 30.9901 142.387 29.681 142.316 28.5006H144.792L144.896 30.8874H144.975C145.275 30.0671 145.748 29.4067 146.396 28.9114C147.029 28.4655 147.713 28.2432 148.451 28.2432C148.713 28.2432 148.951 28.2614 149.161 28.2939V30.9368Z" fill="white"/>
<path d="M161.875 34.1464C161.875 34.643 161.841 35.0616 161.771 35.4035H153.243C153.276 36.6359 153.688 37.5784 154.48 38.2284C155.199 38.8095 156.128 39.1007 157.269 39.1007C158.532 39.1007 159.684 38.9044 160.72 38.5105L161.165 40.4345C159.955 40.9493 158.525 41.2054 156.876 41.2054C154.892 41.2054 153.335 40.636 152.201 39.4985C151.071 38.361 150.504 36.8335 150.504 34.9173C150.504 33.0362 151.031 31.4697 152.085 30.2204C153.189 28.8866 154.681 28.2197 156.559 28.2197C158.403 28.2197 159.799 28.8866 160.747 30.2204C161.497 31.2799 161.875 32.5903 161.875 34.1464ZM159.164 33.4275C159.183 32.6059 158.997 31.8961 158.612 31.2968C158.12 30.5259 157.364 30.1411 156.347 30.1411C155.417 30.1411 154.661 30.5168 154.084 31.2708C153.611 31.8701 153.329 32.589 153.243 33.4262H159.164V33.4275Z" fill="white"/>
<path d="M64.4 13.0305C64.4 14.5606 63.9294 15.7124 62.9894 16.4859C62.1187 17.1996 60.8814 17.5571 59.2787 17.5571C58.484 17.5571 57.804 17.5233 57.2347 17.4557V9.09538C57.9773 8.97838 58.7773 8.91858 59.6413 8.91858C61.168 8.91858 62.3187 9.24228 63.0947 9.88968C63.964 10.6216 64.4 11.6681 64.4 13.0305ZM62.9267 13.0682C62.9267 12.0763 62.6574 11.3158 62.1187 10.7854C61.58 10.2563 60.7934 9.99108 59.7574 9.99108C59.3174 9.99108 58.9427 10.0197 58.632 10.0795V16.4352C58.804 16.4612 59.1187 16.4729 59.576 16.4729C60.6454 16.4729 61.4707 16.183 62.052 15.6032C62.6334 15.0234 62.9267 14.1784 62.9267 13.0682Z" fill="white"/>
<path d="M72.212 14.367C72.212 15.3095 71.936 16.0817 71.384 16.6875C70.8054 17.3102 70.0387 17.6209 69.0814 17.6209C68.1587 17.6209 67.424 17.3232 66.876 16.7252C66.3294 16.1285 66.056 15.3758 66.056 14.4684C66.056 13.5194 66.3374 12.7407 66.9027 12.1362C67.468 11.5317 68.228 11.2288 69.1854 11.2288C70.108 11.2288 70.8494 11.5265 71.4107 12.1232C71.944 12.703 72.212 13.4518 72.212 14.367ZM70.7627 14.4112C70.7627 13.8457 70.6374 13.3608 70.388 12.9565C70.0947 12.4677 69.6774 12.2233 69.1347 12.2233C68.5734 12.2233 68.1467 12.4677 67.8534 12.9565C67.6027 13.3608 67.4787 13.8535 67.4787 14.4359C67.4787 15.0014 67.604 15.4863 67.8534 15.8906C68.156 16.3794 68.5774 16.6238 69.1214 16.6238C69.6547 16.6238 70.0734 16.3755 70.3747 15.8776C70.6334 15.4655 70.7627 14.9767 70.7627 14.4112Z" fill="white"/>
<path d="M82.6867 11.3535L80.72 17.4817H79.44L78.6253 14.8206C78.4187 14.1563 78.2507 13.4959 78.12 12.8407H78.0947C77.9733 13.5141 77.8053 14.1732 77.5893 14.8206L76.724 17.4817H75.4293L73.58 11.3535H75.016L75.7267 14.2668C75.8987 14.9558 76.04 15.6123 76.1533 16.2337H76.1787C76.2827 15.7215 76.4547 15.0689 76.6973 14.2798L77.5893 11.3548H78.728L79.5827 14.2174C79.7893 14.9155 79.9573 15.5876 80.0867 16.235H80.1253C80.22 15.6045 80.3627 14.9324 80.552 14.2174L81.3147 11.3548H82.6867V11.3535Z" fill="white"/>
<path d="M89.9307 17.4818H88.5334V13.9718C88.5334 12.8902 88.112 12.3494 87.2667 12.3494C86.852 12.3494 86.5174 12.4976 86.2574 12.7953C86 13.093 85.8694 13.444 85.8694 13.8457V17.4805H84.472V13.1047C84.472 12.5665 84.4547 11.9828 84.4214 11.351H85.6494L85.7147 12.3091H85.7534C85.9161 12.0114 86.1587 11.7657 86.4774 11.5694C86.856 11.3406 87.28 11.2249 87.744 11.2249C88.3307 11.2249 88.8187 11.4095 89.2067 11.78C89.6894 12.2337 89.9307 12.911 89.9307 13.8106V17.4818Z" fill="white"/>
<path d="M93.784 17.4817H92.388V8.54163H93.784V17.4817Z" fill="white"/>
<path d="M102.011 14.367C102.011 15.3095 101.735 16.0817 101.183 16.6875C100.604 17.3102 99.836 17.6209 98.88 17.6209C97.956 17.6209 97.2213 17.3232 96.6747 16.7252C96.128 16.1285 95.8547 15.3758 95.8547 14.4684C95.8547 13.5194 96.136 12.7407 96.7013 12.1362C97.2667 11.5317 98.0267 11.2288 98.9827 11.2288C99.9067 11.2288 100.647 11.5265 101.209 12.1232C101.743 12.703 102.011 13.4518 102.011 14.367ZM100.56 14.4112C100.56 13.8457 100.435 13.3608 100.185 12.9565C99.8933 12.4677 99.4747 12.2233 98.9333 12.2233C98.3707 12.2233 97.944 12.4677 97.652 12.9565C97.4013 13.3608 97.2773 13.8535 97.2773 14.4359C97.2773 15.0014 97.4027 15.4863 97.652 15.8906C97.9547 16.3794 98.376 16.6238 98.92 16.6238C99.4533 16.6238 99.8707 16.3755 100.172 15.8776C100.432 15.4655 100.56 14.9767 100.56 14.4112Z" fill="white"/>
<path d="M108.773 17.4818H107.519L107.415 16.7759H107.376C106.947 17.3388 106.335 17.6209 105.54 17.6209C104.947 17.6209 104.467 17.435 104.105 17.0658C103.777 16.7304 103.613 16.3131 103.613 15.8178C103.613 15.069 103.933 14.4983 104.577 14.1031C105.22 13.7079 106.124 13.5142 107.288 13.5233V13.4089C107.288 12.6016 106.853 12.1986 105.983 12.1986C105.363 12.1986 104.816 12.3507 104.344 12.6523L104.06 11.7579C104.644 11.4056 105.365 11.2288 106.216 11.2288C107.859 11.2288 108.683 12.0738 108.683 13.7638V16.0206C108.683 16.6329 108.713 17.1204 108.773 17.4818ZM107.323 15.3758V14.4307C105.781 14.4047 105.011 14.8168 105.011 15.6657C105.011 15.9855 105.099 16.2247 105.279 16.3846C105.459 16.5445 105.688 16.6238 105.961 16.6238C106.268 16.6238 106.555 16.5289 106.816 16.3404C107.079 16.1506 107.24 15.9101 107.3 15.615C107.315 15.5487 107.323 15.4681 107.323 15.3758Z" fill="white"/>
<path d="M116.713 17.4817H115.473L115.408 16.4976H115.369C114.973 17.2464 114.299 17.6208 113.351 17.6208C112.593 17.6208 111.963 17.3309 111.463 16.7511C110.963 16.1713 110.713 15.4186 110.713 14.4943C110.713 13.5024 110.984 12.699 111.528 12.0854C112.055 11.5134 112.7 11.2274 113.468 11.2274C114.312 11.2274 114.903 11.5043 115.239 12.0594H115.265V8.54163H116.664V15.8307C116.664 16.4274 116.68 16.9773 116.713 17.4817ZM115.265 14.8973V13.8755C115.265 13.6987 115.252 13.5557 115.227 13.4465C115.148 13.1189 114.979 12.8433 114.721 12.621C114.461 12.3987 114.148 12.2869 113.787 12.2869C113.265 12.2869 112.857 12.4884 112.557 12.8927C112.26 13.297 112.109 13.8131 112.109 14.4436C112.109 15.0494 112.252 15.5408 112.539 15.9191C112.841 16.3221 113.249 16.5236 113.76 16.5236C114.219 16.5236 114.585 16.3559 114.864 16.0192C115.133 15.7085 115.265 15.3341 115.265 14.8973Z" fill="white"/>
<path d="M128.664 14.367C128.664 15.3095 128.388 16.0817 127.836 16.6875C127.257 17.3102 126.492 17.6209 125.533 17.6209C124.612 17.6209 123.877 17.3232 123.328 16.7252C122.781 16.1285 122.508 15.3758 122.508 14.4684C122.508 13.5194 122.789 12.7407 123.355 12.1362C123.92 11.5317 124.68 11.2288 125.639 11.2288C126.56 11.2288 127.303 11.5265 127.863 12.1232C128.396 12.703 128.664 13.4518 128.664 14.367ZM127.216 14.4112C127.216 13.8457 127.091 13.3608 126.841 12.9565C126.547 12.4677 126.131 12.2233 125.587 12.2233C125.027 12.2233 124.6 12.4677 124.305 12.9565C124.055 13.3608 123.931 13.8535 123.931 14.4359C123.931 15.0014 124.056 15.4863 124.305 15.8906C124.608 16.3794 125.029 16.6238 125.573 16.6238C126.107 16.6238 126.527 16.3755 126.828 15.8776C127.085 15.4655 127.216 14.9767 127.216 14.4112Z" fill="white"/>
<path d="M136.177 17.4818H134.781V13.9718C134.781 12.8902 134.36 12.3494 133.513 12.3494C133.099 12.3494 132.764 12.4976 132.505 12.7953C132.247 13.093 132.117 13.444 132.117 13.8457V17.4805H130.719V13.1047C130.719 12.5665 130.703 11.9828 130.669 11.351H131.896L131.961 12.3091H132C132.164 12.0114 132.407 11.7657 132.724 11.5694C133.104 11.3406 133.527 11.2249 133.992 11.2249C134.577 11.2249 135.065 11.4095 135.453 11.78C135.937 12.2337 136.177 12.911 136.177 13.8106V17.4818Z" fill="white"/>
<path d="M145.581 12.3741H144.043V15.3511C144.043 16.1077 144.316 16.486 144.857 16.486C145.108 16.486 145.316 16.4652 145.48 16.4223L145.516 17.4558C145.24 17.5572 144.877 17.6079 144.431 17.6079C143.879 17.6079 143.449 17.4441 143.139 17.1165C142.827 16.7889 142.672 16.2377 142.672 15.4642V12.3741H141.753V11.3536H142.672V10.2304L144.041 9.82739V11.3523H145.58V12.3741H145.581Z" fill="white"/>
<path d="M152.979 17.4817H151.58V13.9977C151.58 12.8992 151.159 12.3493 150.315 12.3493C149.667 12.3493 149.224 12.6678 148.981 13.3048C148.94 13.4387 148.916 13.6025 148.916 13.7949V17.4804H147.52V8.54163H148.916V12.2349H148.943C149.383 11.5628 150.013 11.2274 150.831 11.2274C151.409 11.2274 151.888 11.412 152.268 11.7825C152.741 12.244 152.979 12.9304 152.979 13.8378V17.4817Z" fill="white"/>
<path d="M160.609 14.1277C160.609 14.3721 160.591 14.5775 160.557 14.7452H156.367C156.385 15.351 156.585 15.8125 156.973 16.1323C157.328 16.4183 157.785 16.5613 158.345 16.5613C158.965 16.5613 159.531 16.4651 160.04 16.2714L160.259 17.2178C159.663 17.47 158.961 17.5961 158.149 17.5961C157.176 17.5961 156.409 17.3166 155.855 16.7576C155.297 16.1986 155.021 15.4485 155.021 14.5073C155.021 13.583 155.279 12.8134 155.797 12.1998C156.339 11.5446 157.071 11.217 157.995 11.217C158.899 11.217 159.585 11.5446 160.049 12.1998C160.424 12.7198 160.609 13.3633 160.609 14.1277ZM159.276 13.7754C159.287 13.3711 159.195 13.0227 159.005 12.7289C158.763 12.3506 158.393 12.1608 157.893 12.1608C157.437 12.1608 157.065 12.3454 156.781 12.7159C156.549 13.011 156.412 13.3633 156.367 13.7754H159.276Z" fill="white"/>
</svg>
