<svg width="1420" height="587" viewBox="0 0 1420 587" fill="none" xmlns="http://www.w3.org/2000/svg">
<rect x="68" width="1440" height="587" fill="white"/>
<path d="M516.307 271.023C512.007 271.023 507.407 270.823 502.507 270.423C479.307 268.423 455.907 263.423 433.307 258.623C420.907 255.923 408.107 253.223 395.507 251.023C321.107 238.123 243.107 234.323 167.707 230.623L165.707 230.523C157.907 230.123 141.907 234.523 123.407 239.623C83.3071 250.723 28.4071 265.823 8.10706 246.023C4.10706 242.123 1.50706 236.923 0.607063 230.523C-0.492938 223.723 0.207062 215.423 2.60706 205.823L2.70706 205.623L2.80706 205.823C10.8071 216.423 18.9071 224.023 27.3071 229.223C35.1071 234.023 43.3071 236.723 52.5071 237.523C69.9071 239.023 89.0071 233.223 111.107 226.623L112.507 226.223C143.907 216.823 171.007 216.223 199.707 215.523C212.407 215.223 225.607 214.923 239.707 213.823C260.707 212.223 282.507 204.823 303.507 197.623C322.007 191.323 341.007 184.823 359.707 182.123C369.807 180.723 378.907 180.423 387.607 181.323C397.407 182.423 406.407 184.923 415.107 189.023C437.507 199.523 450.007 215.723 461.107 230.023C478.207 252.223 493.007 271.323 537.807 264.823L540.007 264.523C548.007 263.323 557.807 261.923 568.307 260.223C569.607 259.723 570.907 259.323 572.307 258.823C581.507 255.523 591.007 252.023 602.807 248.823C613.207 246.023 623.607 245.523 633.707 245.023C638.407 244.823 643.007 244.623 647.507 244.123C649.907 243.423 652.107 242.623 654.107 241.923C673.207 234.923 683.507 219.923 694.407 203.923C701.807 193.123 709.407 181.923 720.207 172.723C722.207 171.023 724.307 169.323 726.507 167.623C730.507 163.323 735.007 159.323 740.207 156.123C753.807 147.423 770.707 139.923 788.807 134.423C790.607 133.823 792.407 133.323 794.307 132.823C804.907 129.223 815.807 126.223 826.707 123.923C848.707 119.323 869.307 117.923 888.007 119.823C908.707 121.923 926.207 128.023 940.107 137.823C961.007 152.723 973.307 171.123 985.107 188.823C994.907 203.523 1004.21 217.423 1017.71 228.223C1032.91 240.423 1051.11 246.823 1075.21 248.523C1131.81 252.523 1187.41 228.423 1241.21 205.123C1267.51 193.723 1292.41 182.923 1317.41 175.223L1318.81 174.823C1348.01 165.823 1397.01 150.623 1444.11 144.723C1470.11 141.423 1492.81 141.323 1511.61 144.323C1533.81 147.823 1551.21 155.923 1563.31 168.123L1563.51 168.323H1563.21C1474.91 159.723 1386.21 168.323 1299.71 193.823C1274.31 201.323 1248.51 213.023 1223.71 224.423C1200.41 235.023 1176.41 246.023 1152.21 253.823C1125.01 262.523 1100.71 266.123 1077.91 264.723C1018.11 261.023 999.907 233.823 976.807 199.423C967.907 186.023 958.607 172.223 946.007 158.123C912.107 120.123 847.707 118.223 794.107 133.223C768.507 141.923 744.607 154.223 726.607 168.023C718.107 177.223 711.607 188.323 705.407 199.123C697.307 213.023 689.707 226.123 678.307 234.323C668.707 241.123 658.407 243.523 647.507 244.623C627.007 250.923 595.107 256.523 568.307 260.723C551.807 266.323 537.507 271.023 516.307 271.023ZM164.607 230.323C164.907 230.323 165.307 230.323 165.607 230.323L167.607 230.423C243.007 234.123 321.007 237.923 395.407 250.823C408.007 253.023 420.807 255.723 433.207 258.423C455.807 263.223 479.207 268.323 502.407 270.223C531.107 272.623 547.707 267.623 567.007 260.723C556.807 262.323 547.407 263.723 539.707 264.823L537.507 265.123C492.707 271.723 477.807 252.523 460.707 230.223C449.707 215.923 437.207 199.823 414.807 189.323C406.107 185.223 397.107 182.723 387.407 181.723C378.707 180.823 369.607 181.023 359.607 182.523C341.007 185.223 321.907 191.723 303.507 198.023C282.407 205.223 260.607 212.623 239.607 214.223C225.507 215.323 212.307 215.623 199.607 215.923C170.907 216.623 143.807 217.223 112.507 226.623L111.107 227.023C88.9071 233.623 69.8071 239.423 52.4071 237.923C43.2071 237.123 35.0071 234.423 27.1071 229.623C18.7071 224.423 10.7071 216.823 2.60706 206.323C0.307063 215.823 -0.392937 224.023 0.607063 230.723C1.60706 237.023 4.10706 242.223 8.10706 246.023C28.3071 265.723 83.2071 250.623 123.207 239.523C141.107 234.523 156.507 230.323 164.607 230.323ZM855.407 124.023C872.207 124.023 887.807 126.223 901.707 130.523C920.007 136.123 934.907 145.323 946.007 157.823C958.707 172.023 967.907 185.823 976.807 199.223C999.807 233.623 1018.01 260.823 1077.71 264.523C1100.51 265.923 1124.81 262.423 1152.01 253.623C1176.21 245.823 1200.21 234.923 1223.51 224.223C1248.41 212.823 1274.11 201.123 1299.61 193.623C1386.01 168.123 1474.61 159.523 1562.91 168.123C1550.81 156.023 1533.51 148.023 1511.51 144.523C1492.71 141.523 1470.01 141.723 1444.11 144.923C1397.01 150.923 1348.11 166.023 1318.91 175.023L1317.51 175.423C1292.51 183.123 1267.61 193.923 1241.31 205.323C1191.51 226.923 1140.11 249.123 1087.81 249.123C1083.61 249.123 1079.41 249.023 1075.11 248.723C1051.01 247.023 1032.71 240.523 1017.51 228.323C1004.01 217.523 994.707 203.523 984.807 188.823C972.907 171.123 960.707 152.723 939.807 137.823C926.007 127.923 908.507 121.923 887.807 119.823C869.107 117.923 848.507 119.323 826.607 123.923C816.907 125.923 807.107 128.623 797.607 131.723C813.707 127.523 830.207 124.923 846.007 124.123C849.107 124.123 852.207 124.023 855.407 124.023ZM646.307 244.523C642.107 244.923 637.807 245.123 633.407 245.323C623.307 245.823 612.907 246.323 602.607 249.123C590.807 252.323 581.307 255.723 572.107 259.123C571.107 259.523 570.107 259.823 569.107 260.223C595.307 256.023 626.007 250.623 646.307 244.523ZM725.507 168.523C723.607 170.023 721.807 171.423 720.107 172.923C709.307 182.223 701.707 193.323 694.307 204.123C683.407 220.123 673.207 235.123 653.907 242.123C652.107 242.723 650.207 243.423 648.207 244.023C658.707 242.923 668.607 240.523 677.907 233.923C689.307 225.723 696.907 212.623 705.007 198.723C711.107 188.323 717.307 177.523 725.507 168.523ZM790.507 134.023C771.607 139.623 754.207 147.323 740.107 156.223C735.307 159.323 731.107 162.923 727.307 166.823C744.307 154.023 766.607 142.523 790.507 134.023Z" fill="#E21A43" fill-opacity="0.5"/>
<path d="M516.307 305.723C512.007 305.723 507.407 305.523 502.507 305.123C479.307 303.223 455.907 298.223 433.207 293.323C420.807 290.623 408.007 287.923 395.407 285.723C321.007 272.823 243.007 269.023 167.607 265.323L165.607 265.223C157.807 264.823 141.807 269.223 123.307 274.323C83.2071 285.423 28.3071 300.623 8.00706 280.823C4.00706 276.923 1.40706 271.723 0.507056 265.323C-0.592944 258.523 0.107056 250.223 2.50706 240.623L2.60706 240.423L2.70706 240.623C10.7071 251.223 18.8071 258.823 27.2071 264.023C35.0071 268.823 43.2071 271.523 52.4071 272.323C69.8071 273.823 88.9071 268.023 111.007 261.423L112.407 261.023C143.807 251.623 170.907 251.023 199.607 250.323C212.307 250.023 225.507 249.723 239.607 248.623C260.607 247.023 282.407 239.623 303.407 232.423C321.907 226.123 340.907 219.623 359.607 216.923C369.707 215.523 378.807 215.223 387.507 216.123C397.307 217.223 406.307 219.723 415.007 223.823C437.407 234.323 449.907 250.523 461.007 264.823C478.107 287.023 492.907 306.123 537.707 299.623L539.907 299.323C547.907 298.123 557.707 296.723 568.207 295.023C569.507 294.523 570.807 294.123 572.207 293.623C581.407 290.323 590.907 286.823 602.707 283.623C613.107 280.823 623.507 280.323 633.607 279.823C638.307 279.623 642.907 279.423 647.407 278.923C649.807 278.223 652.007 277.423 654.007 276.723C673.107 269.723 683.407 254.723 694.307 238.723C701.707 227.923 709.307 216.723 720.107 207.523C722.107 205.823 724.207 204.123 726.407 202.423C730.407 198.123 734.907 194.123 740.107 190.923C753.707 182.223 770.607 174.723 788.707 169.223C790.507 168.623 792.307 168.123 794.207 167.623C804.807 164.023 815.707 161.023 826.607 158.723C848.607 154.123 869.207 152.723 887.907 154.623C908.607 156.723 926.107 162.823 940.007 172.623C960.907 187.523 973.207 205.923 985.007 223.623C994.807 238.323 1004.11 252.223 1017.61 263.023C1032.81 275.223 1051.01 281.623 1075.11 283.323C1131.71 287.323 1187.31 263.223 1241.11 239.923C1267.41 228.523 1292.31 217.723 1317.31 210.023L1318.71 209.623C1347.91 200.623 1396.91 185.423 1444.01 179.523C1470.01 176.223 1492.71 176.123 1511.51 179.123C1533.71 182.623 1551.11 190.723 1563.21 202.923L1563.41 203.123H1563.11C1474.81 194.523 1386.11 203.123 1299.61 228.623C1274.21 236.123 1248.41 247.823 1223.61 259.223C1200.31 269.823 1176.31 280.823 1152.11 288.623C1124.91 297.323 1100.61 300.923 1077.81 299.523C1018.01 295.823 999.807 268.623 976.707 234.223C967.807 220.823 958.507 207.023 945.907 192.923C912.007 154.923 847.607 153.023 794.007 168.023C768.407 176.723 744.507 189.023 726.507 202.823C718.007 212.023 711.507 223.123 705.307 233.923C697.207 247.823 689.607 260.923 678.207 269.123C668.607 275.923 658.307 278.323 647.407 279.423C626.907 285.723 595.007 291.323 568.207 295.523C551.807 301.123 537.507 305.723 516.307 305.723ZM164.607 265.023C164.907 265.023 165.307 265.023 165.607 265.023L167.607 265.123C243.007 268.823 321.007 272.623 395.407 285.523C408.007 287.723 420.807 290.423 433.207 293.123C455.807 297.923 479.207 303.023 502.407 304.923C531.107 307.323 547.707 302.323 567.007 295.423C556.807 297.023 547.407 298.423 539.707 299.523L537.507 299.823C492.707 306.423 477.807 287.223 460.707 264.923C449.707 250.623 437.207 234.523 414.807 224.023C406.107 219.923 397.107 217.423 387.407 216.423C378.707 215.523 369.607 215.723 359.607 217.223C341.007 219.923 321.907 226.423 303.507 232.723C282.407 239.923 260.607 247.323 239.607 248.923C225.507 250.023 212.307 250.323 199.607 250.623C170.907 251.323 143.807 251.923 112.507 261.323L111.107 261.723C88.9071 268.323 69.8071 274.123 52.4071 272.623C43.2071 271.823 35.0071 269.123 27.1071 264.323C18.7071 259.123 10.7071 251.523 2.60706 241.023C0.307063 250.523 -0.392937 258.723 0.607063 265.423C1.60706 271.723 4.10706 276.923 8.10706 280.723C28.3071 300.423 83.2071 285.323 123.207 274.223C141.107 269.323 156.507 265.023 164.607 265.023ZM855.407 158.823C872.207 158.823 887.807 161.023 901.707 165.323C920.007 170.923 934.907 180.123 946.007 192.623C958.707 206.823 967.907 220.623 976.807 234.023C999.807 268.423 1018.01 295.623 1077.71 299.323C1100.51 300.723 1124.81 297.223 1152.01 288.423C1176.21 280.623 1200.21 269.723 1223.51 259.023C1248.41 247.623 1274.11 235.923 1299.61 228.423C1386.01 202.923 1474.61 194.323 1562.91 202.923C1550.81 190.823 1533.51 182.823 1511.51 179.323C1492.71 176.323 1470.01 176.523 1444.11 179.723C1397.01 185.723 1348.11 200.823 1318.91 209.823L1317.51 210.223C1292.51 217.923 1267.61 228.723 1241.31 240.123C1191.51 261.723 1140.11 283.923 1087.81 283.923C1083.61 283.923 1079.41 283.823 1075.11 283.523C1051.01 281.823 1032.71 275.323 1017.51 263.123C1004.01 252.323 994.707 238.323 984.807 223.623C972.907 205.923 960.707 187.523 939.807 172.623C926.007 162.723 908.507 156.723 887.807 154.623C869.107 152.723 848.507 154.123 826.607 158.723C816.907 160.723 807.107 163.423 797.607 166.523C813.707 162.323 830.207 159.723 846.007 158.923C849.107 158.923 852.207 158.823 855.407 158.823ZM646.307 279.223C642.107 279.623 637.807 279.823 633.407 280.023C623.307 280.523 612.907 281.023 602.607 283.823C590.807 287.023 581.307 290.423 572.107 293.823C571.107 294.223 570.107 294.523 569.107 294.923C595.307 290.723 626.007 285.323 646.307 279.223ZM725.507 203.223C723.607 204.723 721.807 206.123 720.107 207.623C709.307 216.923 701.707 228.023 694.307 238.823C683.407 254.823 673.207 269.823 653.907 276.823C652.107 277.423 650.207 278.123 648.207 278.723C658.707 277.623 668.607 275.223 677.907 268.623C689.307 260.423 696.907 247.323 705.007 233.423C711.107 223.023 717.307 212.323 725.507 203.223ZM790.507 168.823C771.607 174.423 754.207 182.123 740.107 191.023C735.307 194.123 731.107 197.723 727.307 201.623C744.307 188.823 766.607 177.323 790.507 168.823Z" fill="#E21A43" fill-opacity="0.5"/>
<path d="M516.307 340.523C512.007 340.523 507.407 340.323 502.507 339.923C479.307 338.023 455.907 333.023 433.207 328.123C420.807 325.423 408.007 322.723 395.407 320.523C321.007 307.623 243.007 303.823 167.607 300.123L165.607 300.023C157.807 299.623 141.807 304.023 123.307 309.123C83.2071 320.223 28.3071 335.423 8.00706 315.523C4.00706 311.623 1.40706 306.423 0.507056 300.023C-0.592944 293.223 0.107056 284.923 2.50706 275.323L2.60706 275.123L2.70706 275.323C10.7071 285.923 18.8071 293.523 27.2071 298.723C35.0071 303.523 43.2071 306.223 52.4071 307.023C69.8071 308.523 88.9071 302.723 111.007 296.123L112.407 295.723C143.807 286.323 170.907 285.723 199.607 285.023C212.307 284.723 225.507 284.423 239.607 283.323C260.607 281.723 282.407 274.323 303.407 267.123C321.907 260.823 340.907 254.323 359.607 251.623C369.707 250.223 378.807 249.923 387.507 250.823C397.307 251.923 406.307 254.423 415.007 258.523C437.407 269.023 449.907 285.223 461.007 299.523C478.107 321.723 492.907 340.823 537.707 334.323L539.907 334.023C547.907 332.823 557.707 331.423 568.207 329.723C569.507 329.223 570.807 328.823 572.207 328.323C581.407 325.023 590.907 321.523 602.707 318.323C613.107 315.523 623.507 315.023 633.607 314.523C638.307 314.323 642.907 314.123 647.407 313.623C649.807 312.923 652.007 312.123 654.007 311.423C673.107 304.423 683.407 289.423 694.307 273.423C701.707 262.623 709.307 251.423 720.107 242.223C722.107 240.523 724.207 238.823 726.407 237.123C730.407 232.823 734.907 228.823 740.107 225.623C753.707 216.923 770.607 209.423 788.707 203.923C790.507 203.323 792.307 202.823 794.207 202.323C804.807 198.723 815.707 195.723 826.607 193.423C848.607 188.823 869.207 187.423 887.907 189.323C908.607 191.423 926.107 197.523 940.007 207.323C960.907 222.223 973.207 240.623 985.007 258.323C994.807 273.023 1004.11 286.923 1017.61 297.723C1032.81 309.923 1051.01 316.323 1075.11 318.023C1131.71 322.023 1187.31 297.923 1241.11 274.623C1267.41 263.223 1292.31 252.423 1317.31 244.723L1318.71 244.323C1347.91 235.323 1396.91 220.123 1444.01 214.223C1470.01 210.923 1492.71 210.823 1511.51 213.823C1533.71 217.323 1551.11 225.423 1563.21 237.623L1563.41 237.823H1563.11C1474.81 229.223 1386.11 237.823 1299.61 263.323C1274.21 270.823 1248.41 282.523 1223.61 293.923C1200.31 304.523 1176.31 315.523 1152.11 323.323C1124.91 332.023 1100.61 335.623 1077.81 334.223C1018.01 330.523 999.807 303.323 976.707 268.923C967.807 255.523 958.507 241.723 945.907 227.623C912.007 189.623 847.607 187.723 794.007 202.723C768.407 211.423 744.507 223.723 726.507 237.523C718.007 246.723 711.507 257.823 705.307 268.623C697.207 282.523 689.607 295.623 678.207 303.823C668.607 310.623 658.307 313.023 647.407 314.123C626.907 320.423 595.007 326.023 568.207 330.223C551.807 335.823 537.507 340.523 516.307 340.523ZM164.607 299.823C164.907 299.823 165.307 299.823 165.607 299.823L167.607 299.923C243.007 303.623 321.007 307.423 395.407 320.323C408.007 322.523 420.807 325.223 433.207 327.923C455.807 332.723 479.207 337.823 502.407 339.723C531.107 342.123 547.707 337.123 567.007 330.223C556.807 331.823 547.407 333.223 539.707 334.323L537.507 334.623C492.707 341.223 477.807 322.023 460.707 299.723C449.707 285.423 437.207 269.323 414.807 258.823C406.107 254.723 397.107 252.223 387.407 251.223C378.707 250.323 369.607 250.523 359.607 252.023C341.007 254.723 321.907 261.223 303.507 267.523C282.407 274.723 260.607 282.123 239.607 283.723C225.507 284.823 212.307 285.123 199.607 285.423C170.907 286.123 143.807 286.723 112.507 296.123L111.107 296.523C88.9071 303.123 69.8071 308.923 52.4071 307.423C43.2071 306.623 35.0071 303.923 27.1071 299.123C18.7071 293.923 10.7071 286.323 2.60706 275.823C0.307063 285.323 -0.392937 293.523 0.607063 300.223C1.60706 306.523 4.10706 311.723 8.10706 315.523C28.3071 335.223 83.2071 320.123 123.207 309.023C141.107 304.023 156.507 299.823 164.607 299.823ZM855.407 193.523C872.207 193.523 887.807 195.723 901.707 200.023C920.007 205.623 934.907 214.823 946.007 227.323C958.707 241.523 967.907 255.323 976.807 268.723C999.807 303.123 1018.01 330.323 1077.71 334.023C1100.51 335.423 1124.81 331.923 1152.01 323.123C1176.21 315.323 1200.21 304.423 1223.51 293.723C1248.41 282.323 1274.11 270.623 1299.61 263.123C1386.01 237.623 1474.61 229.023 1562.91 237.623C1550.81 225.523 1533.51 217.523 1511.51 214.023C1492.71 211.023 1470.01 211.223 1444.11 214.423C1397.01 220.423 1348.11 235.523 1318.91 244.523L1317.51 244.923C1292.51 252.623 1267.61 263.423 1241.31 274.823C1191.51 296.423 1140.11 318.623 1087.81 318.623C1083.61 318.623 1079.41 318.523 1075.11 318.223C1051.01 316.523 1032.71 310.023 1017.51 297.823C1004.01 287.023 994.707 273.023 984.807 258.323C972.907 240.623 960.707 222.223 939.807 207.323C926.007 197.423 908.507 191.423 887.807 189.323C869.107 187.423 848.507 188.823 826.607 193.423C816.907 195.423 807.107 198.123 797.607 201.223C813.707 197.023 830.207 194.423 846.007 193.623C849.107 193.623 852.207 193.523 855.407 193.523ZM646.307 314.023C642.107 314.423 637.807 314.623 633.407 314.823C623.307 315.323 612.907 315.823 602.607 318.623C590.807 321.823 581.307 325.223 572.107 328.623C571.107 329.023 570.107 329.323 569.107 329.723C595.307 325.523 626.007 320.123 646.307 314.023ZM725.507 238.023C723.607 239.523 721.807 240.923 720.107 242.423C709.307 251.723 701.707 262.823 694.307 273.623C683.407 289.623 673.207 304.623 653.907 311.623C652.107 312.223 650.207 312.923 648.207 313.523C658.707 312.423 668.607 310.023 677.907 303.423C689.307 295.223 696.907 282.123 705.007 268.223C711.107 257.823 717.307 247.023 725.507 238.023ZM790.507 203.523C771.607 209.123 754.207 216.823 740.107 225.723C735.307 228.823 731.107 232.423 727.307 236.323C744.307 223.523 766.607 212.023 790.507 203.523Z" fill="#E21A43" fill-opacity="0.5"/>
<path d="M516.307 375.223C512.007 375.223 507.407 375.023 502.507 374.623C479.307 372.723 455.907 367.723 433.207 362.823C420.807 360.123 408.007 357.423 395.407 355.223C321.007 342.323 243.007 338.523 167.607 334.823L165.607 334.723C157.807 334.323 141.807 338.723 123.307 343.823C83.2071 354.923 28.3071 370.023 8.00706 350.223C4.00706 346.323 1.40706 341.123 0.507056 334.723C-0.592944 327.923 0.107056 319.623 2.50706 310.023L2.60706 309.823L2.70706 310.023C10.7071 320.623 18.8071 328.223 27.2071 333.423C35.0071 338.223 43.2071 340.923 52.4071 341.723C69.8071 343.223 88.9071 337.423 111.007 330.823L112.407 330.423C143.807 321.023 170.907 320.423 199.607 319.723C212.307 319.423 225.507 319.123 239.607 318.023C260.607 316.423 282.407 309.023 303.407 301.823C321.907 295.523 340.907 289.023 359.607 286.323C369.707 284.923 378.807 284.623 387.507 285.523C397.307 286.623 406.307 289.123 415.007 293.223C437.407 303.723 449.907 319.923 461.007 334.223C478.107 356.423 492.907 375.523 537.707 369.023L539.907 368.723C547.907 367.523 557.707 366.123 568.207 364.423C569.507 363.923 570.807 363.523 572.207 363.023C581.407 359.723 590.907 356.223 602.707 353.023C613.107 350.223 623.507 349.723 633.607 349.223C638.307 349.023 642.907 348.823 647.407 348.323C649.807 347.623 652.007 346.823 654.007 346.123C673.107 339.123 683.407 324.123 694.307 308.123C701.707 297.323 709.307 286.123 720.107 276.923C722.107 275.223 724.207 273.523 726.407 271.823C730.407 267.523 734.907 263.523 740.107 260.323C753.707 251.623 770.607 244.123 788.707 238.623C790.507 238.023 792.307 237.523 794.207 237.023C804.807 233.423 815.707 230.423 826.607 228.123C848.607 223.523 869.207 222.123 887.907 224.023C908.607 226.123 926.107 232.223 940.007 242.023C960.907 256.923 973.207 275.323 985.007 293.023C994.807 307.723 1004.11 321.623 1017.61 332.423C1032.81 344.623 1051.01 351.023 1075.11 352.723C1131.71 356.723 1187.31 332.623 1241.11 309.323C1267.41 297.923 1292.31 287.123 1317.31 279.423L1318.71 279.023C1347.91 270.023 1396.91 254.823 1444.01 248.923C1470.01 245.623 1492.71 245.523 1511.51 248.523C1533.71 252.023 1551.11 260.123 1563.21 272.323L1563.41 272.523H1563.11C1474.81 263.923 1386.11 272.523 1299.61 298.023C1274.21 305.523 1248.41 317.223 1223.61 328.623C1200.31 339.223 1176.31 350.223 1152.11 358.023C1124.91 366.723 1100.61 370.323 1077.81 368.923C1018.01 365.223 999.807 338.023 976.707 303.623C967.807 290.223 958.507 276.423 945.907 262.323C912.007 224.323 847.607 222.423 794.007 237.423C768.407 246.123 744.507 258.423 726.507 272.223C718.007 281.423 711.507 292.523 705.307 303.323C697.207 317.223 689.607 330.323 678.207 338.523C668.607 345.323 658.307 347.723 647.407 348.823C626.907 355.123 595.007 360.723 568.207 364.923C551.807 370.623 537.507 375.223 516.307 375.223ZM164.607 334.523C164.907 334.523 165.307 334.523 165.607 334.523L167.607 334.623C243.007 338.323 321.007 342.123 395.407 355.023C408.007 357.223 420.807 359.923 433.207 362.623C455.807 367.423 479.207 372.523 502.407 374.423C531.107 376.823 547.707 371.823 567.007 364.923C556.807 366.523 547.407 367.923 539.707 369.023L537.507 369.323C492.707 375.923 477.807 356.723 460.707 334.423C449.707 320.123 437.207 304.023 414.807 293.523C406.107 289.423 397.107 286.923 387.407 285.923C378.707 285.023 369.607 285.223 359.607 286.723C341.007 289.423 321.907 295.923 303.507 302.223C282.407 309.423 260.607 316.823 239.607 318.423C225.507 319.523 212.307 319.823 199.607 320.123C170.907 320.823 143.807 321.423 112.507 330.823L111.107 331.223C88.9071 337.823 69.8071 343.623 52.4071 342.123C43.2071 341.323 35.0071 338.623 27.1071 333.823C18.7071 328.623 10.7071 321.023 2.60706 310.523C0.307063 320.023 -0.392937 328.223 0.607063 334.923C1.60706 341.223 4.10706 346.423 8.10706 350.223C28.3071 369.923 83.2071 354.823 123.207 343.723C141.107 338.823 156.507 334.523 164.607 334.523ZM855.407 228.323C872.207 228.323 887.807 230.523 901.707 234.823C920.007 240.423 934.907 249.623 946.007 262.123C958.707 276.323 967.907 290.123 976.807 303.523C999.807 337.923 1018.01 365.123 1077.71 368.823C1100.51 370.223 1124.81 366.723 1152.01 357.923C1176.21 350.123 1200.21 339.223 1223.51 328.523C1248.41 317.123 1274.11 305.423 1299.61 297.923C1386.01 272.423 1474.61 263.823 1562.91 272.423C1550.81 260.323 1533.51 252.323 1511.51 248.823C1492.71 245.823 1470.01 246.023 1444.11 249.223C1397.01 255.223 1348.11 270.323 1318.91 279.323L1317.51 279.723C1292.51 287.423 1267.61 298.223 1241.31 309.623C1191.51 331.223 1140.11 353.423 1087.81 353.423C1083.61 353.423 1079.41 353.323 1075.11 353.023C1051.01 351.323 1032.71 344.823 1017.51 332.623C1004.01 321.823 994.707 307.823 984.807 293.123C972.907 275.423 960.707 257.023 939.807 242.123C926.007 232.223 908.507 226.223 887.807 224.123C869.107 222.223 848.507 223.623 826.607 228.223C816.907 230.223 807.107 232.923 797.607 236.023C813.707 231.823 830.207 229.223 846.007 228.423C849.107 228.423 852.207 228.323 855.407 228.323ZM646.307 348.723C642.107 349.123 637.807 349.323 633.407 349.523C623.307 350.023 612.907 350.523 602.607 353.323C590.807 356.523 581.307 359.923 572.107 363.323C571.107 363.723 570.107 364.023 569.107 364.423C595.307 360.223 626.007 354.823 646.307 348.723ZM725.507 272.723C723.607 274.223 721.807 275.623 720.107 277.123C709.307 286.423 701.707 297.623 694.307 308.423C683.407 324.423 673.207 339.423 653.907 346.423C652.107 347.023 650.207 347.723 648.207 348.323C658.707 347.223 668.607 344.823 677.907 338.223C689.307 330.023 696.907 316.923 705.007 303.023C711.107 292.523 717.307 281.823 725.507 272.723ZM790.507 238.323C771.607 243.923 754.207 251.623 740.107 260.523C735.307 263.623 731.107 267.223 727.307 271.123C744.307 258.323 766.607 246.723 790.507 238.323Z" fill="#E21A43" fill-opacity="0.5"/>
</svg>
