<svg width="150" height="149" viewBox="0 0 150 149" fill="none" xmlns="http://www.w3.org/2000/svg">
<rect x="0.179443" y="74.5" width="105.359" height="105.359" rx="5" transform="rotate(-45 0.179443 74.5)" fill="#E21A43" fill-opacity="0.07"/>
<path d="M75.4395 27.0884C74.7949 27.2153 73.9258 27.5571 73.3594 27.8892C72.666 28.2993 71.6211 29.3442 71.2109 30.0474C69.7949 32.4106 70.1172 35.438 71.9824 37.479C72.5586 38.104 72.5781 38.1333 72.3535 38.1919C72.2266 38.231 71.7676 38.4263 71.3379 38.6411C69.8633 39.3735 68.457 41.0728 67.6172 43.1528C67.4219 43.6313 67.2461 44.0415 67.2363 44.061C67.2168 44.0806 67.0508 43.9829 66.8457 43.8462C66.6406 43.7095 66.3184 43.5532 66.123 43.4946C65.5469 43.3384 56.875 43.3774 56.416 43.5337C55.2441 43.9536 54.6484 44.9302 55.2246 45.4966C55.5371 45.8188 55.9668 45.8188 56.2598 45.4966C56.6602 45.0669 56.9629 44.9595 57.8125 44.9595H58.5938V46.2778C58.5938 47.5571 58.6035 47.6157 58.8379 47.8403L59.0723 48.0845H61.3281H63.584L63.8184 47.8403C64.0527 47.6157 64.0625 47.5571 64.0625 46.2681V44.9399L64.9902 44.979C65.791 45.0083 65.9375 45.0376 66.1328 45.2329L66.3574 45.4575V48.8657V52.2739L66.1328 52.4985L65.9082 52.7231L61.3672 52.7524L56.8262 52.7817L56.543 52.4888C56.377 52.3325 56.25 52.1567 56.25 52.0981C56.25 52.0298 56.582 51.9907 57.1777 51.9907C58.0371 51.9907 58.1348 51.9712 58.3496 51.7466C58.5059 51.6001 58.5938 51.395 58.5938 51.2095C58.5938 51.0239 58.5059 50.8188 58.3496 50.6724C58.1348 50.4478 58.0371 50.4282 57.1777 50.4282H56.25V49.647V48.8657H56.7871C57.4414 48.8657 57.8125 48.5825 57.8125 48.0845C57.8125 47.8989 57.7246 47.6938 57.5684 47.5474L57.334 47.3032H55.0781H52.8223L52.5879 47.5474C52.2656 47.8599 52.2656 48.3091 52.5879 48.6216C52.8027 48.8462 52.9004 48.8657 53.7598 48.8657H54.6875V49.647V50.4282H52.9785C51.2891 50.4282 51.2598 50.4282 51.0254 50.6724C50.7031 50.9849 50.7031 51.4341 51.0254 51.7466C51.2598 51.9907 51.2891 51.9907 52.9492 51.9907H54.6484L54.7656 52.4302C54.9902 53.2896 55.5957 53.9341 56.4355 54.2173C56.6504 54.2954 57.5293 54.3345 58.9063 54.3345H61.0547L60.6934 54.7544C59.6875 55.9165 58.7695 58.8364 58.6328 61.2876C58.5645 62.4106 58.5645 62.4204 58.8184 62.6743C59.0723 62.9185 59.1016 62.9282 60.4199 62.9282H61.7676L61.9238 63.6021C62.4609 65.8091 64.2188 67.5767 66.4551 68.1528C67.207 68.3481 68.7305 68.3481 69.4824 68.1528C71.709 67.5767 73.4766 65.8091 74.0039 63.6216L74.1699 62.9282H80.0781H85.9961L86.1231 63.5337C86.6895 66.2778 89.3262 68.397 92.1875 68.397C95.5957 68.397 98.4375 65.5552 98.4375 62.147C98.4375 59.8325 97.0606 57.606 95.0195 56.5903C94.1504 56.1704 93.1348 55.897 92.3731 55.897H91.9238L90.5371 52.6646C89.7754 50.8774 89.1699 49.4126 89.1797 49.3931C89.1992 49.3833 89.4531 49.4321 89.7461 49.5103C90.5274 49.7153 90.8887 49.686 91.1621 49.4028L91.4063 49.1685V45.7407V42.313L91.1524 42.0591C90.918 41.8247 90.8594 41.8149 90.2637 41.8638C88.9941 41.981 87.6758 42.8892 87.168 43.9829L86.9434 44.4614L86.6602 44.1685C86.5039 44.0024 86.1621 43.7485 85.8887 43.6118C85.4102 43.3579 85.3613 43.3481 83.8574 43.3774C82.041 43.4067 81.6406 43.2896 80.9277 42.5278C80.5078 42.0786 79.5898 40.8384 79.5898 40.7212C79.5898 40.6919 79.6875 40.6626 79.8145 40.6626C79.9414 40.6626 80.2832 40.5454 80.5762 40.3892C81.1719 40.0864 81.6699 39.5005 81.8555 38.8755C81.9238 38.6313 82.0996 38.3579 82.2949 38.1919C83.0664 37.5278 83.1836 36.7075 82.627 35.8286C82.4609 35.5649 82.2754 35.1938 82.2266 34.9985C82.0996 34.5493 82.0996 34.022 82.2266 34.022C82.2852 34.022 82.4414 33.9146 82.5684 33.7778C82.8613 33.4946 82.8906 32.9771 82.666 31.9224C82.0703 29.0903 79.4238 26.9614 76.5137 27.0005C76.1426 27.0103 75.6543 27.0493 75.4395 27.0884ZM77.6856 28.6997C78.5352 28.9243 79.3262 29.3833 79.9316 30.0278C80.4688 30.5845 80.9863 31.522 81.1133 32.1372L81.1719 32.4399L79.6777 32.479C78.3984 32.5083 78.1055 32.5376 77.7148 32.7231C77.0703 33.0161 76.416 33.6606 76.1035 34.3052C75.8496 34.813 75.8301 34.9497 75.8008 36.356L75.7617 37.8501L75.459 37.7915C74.8438 37.6646 73.9063 37.147 73.3496 36.6099C72.7051 36.0044 72.2461 35.2134 72.0215 34.3638C71.1621 31.0532 74.375 27.8403 77.6856 28.6997ZM80.5469 34.7446C80.6152 35.145 80.8203 35.7798 81.0156 36.1802L81.3672 36.9028L81.1328 37.0493C80.7129 37.3228 80.4688 37.6255 80.4688 37.8794C80.4688 38.27 80.2148 38.7778 79.9414 38.9536C79.6484 39.1489 78.7012 39.1099 77.8809 38.8755L77.3926 38.7388L77.3633 37.0298C77.3438 35.4087 77.3535 35.311 77.5684 34.9009C77.9102 34.2466 78.4082 34.022 79.541 34.022H80.4297L80.5469 34.7446ZM75.293 39.5884C76.582 39.8325 77.3828 40.4478 78.6914 42.2153C79.6777 43.5532 80.3027 44.1587 81.0449 44.5298C81.3477 44.6763 81.6016 44.813 81.6211 44.8228C81.6406 44.8325 81.5625 45.0181 81.4551 45.2427C81.3379 45.4575 81.1914 45.9751 81.1328 46.3853C81.0156 47.1079 81.0156 47.1274 80.7617 47.0786C79.3066 46.7856 77.627 45.5552 76.6211 44.0415C76.1035 43.2603 75.7422 43.1138 75.2539 43.5044C74.7852 43.8755 74.9121 44.3735 75.7617 45.4966L76.0547 45.8774L75.7813 46.229C75.3711 46.7563 74.8926 47.645 74.707 48.2603L74.5313 48.8169L71.2402 48.8462L67.9395 48.8657L67.9981 48.0649C68.0859 46.9712 68.457 45.4087 68.9258 44.1587C70.2441 40.6724 72.4902 39.061 75.293 39.5884ZM89.8438 45.7407C89.8438 48.2212 89.8535 48.2017 89.0332 47.3716C88.5059 46.854 88.2813 46.356 88.2813 45.7407C88.2813 45.1255 88.5059 44.6274 89.0332 44.1001C89.8535 43.2798 89.8438 43.2603 89.8438 45.7407ZM85.4102 45.1255C85.5859 45.2524 85.8106 45.5747 85.9668 45.936L86.2207 46.5317L85.7813 46.7173C85.0488 47.0396 84.1699 47.2251 83.3984 47.2446L82.666 47.2544L82.6367 46.9712C82.5586 46.2681 83.0664 45.3501 83.7402 45.0083C84.1504 44.7935 85.0293 44.8521 85.4102 45.1255ZM62.5 45.7407V46.522H61.3281H60.1563V45.7407V44.9595H61.3281H62.5V45.7407ZM77.9688 47.5376C78.75 48.0454 79.4727 48.3579 80.5176 48.6216L81.3965 48.8462L82.4902 53.563C83.1543 56.4438 83.584 58.5044 83.584 58.8364C83.5938 59.5005 83.3789 60.145 83.0371 60.5063L82.7832 60.77L82.6172 60.3013C82.334 59.4614 81.6504 58.7485 80.8887 58.4849L80.5176 58.3579L80.459 55.6333C80.4102 52.7329 80.4102 52.7329 79.834 51.5903C79.2676 50.4868 77.7637 49.3149 76.6309 49.1099C76.4258 49.0708 76.2305 48.9731 76.2012 48.9048C76.084 48.5923 77.0606 46.9419 77.2852 47.0884C77.3438 47.1274 77.6465 47.3228 77.9688 47.5376ZM88.7012 52.3521L90.5078 56.5806L88.8086 58.9731L87.1094 61.3657H85.7617H84.4141L84.7363 60.7017C85.127 59.9106 85.2832 58.9829 85.166 58.2407C85.0879 57.7817 83.1836 49.5103 83.0469 49.0513C83.0078 48.9243 83.1348 48.8853 83.7793 48.8267C84.5606 48.7681 86.0254 48.397 86.5137 48.1333C86.6504 48.0649 86.7969 48.0356 86.8262 48.0649C86.8652 48.104 87.7051 50.0376 88.7012 52.3521ZM75.7813 50.5259C76.9336 50.7407 78.0176 51.4927 78.4668 52.3813C78.8281 53.104 78.9063 53.729 78.9063 56.0435V58.2407H77.3438H75.7813V57.1177C75.7813 55.3696 75.3223 54.2954 74.2383 53.5142C73.3496 52.8599 72.8613 52.772 70.166 52.772H67.7832L67.8809 52.4595C67.9297 52.2837 67.9688 51.7563 67.9688 51.2876V50.4282H71.6211C73.6621 50.4282 75.4981 50.4673 75.7813 50.5259ZM72.666 54.4517C73.1543 54.5981 73.75 55.106 73.9844 55.5747C74.1406 55.8872 74.1797 56.2583 74.2188 57.9575L74.2676 59.9595L74.6191 60.6626L74.9609 61.3657H67.5488H60.1367L60.2051 60.7505C60.3711 59.1489 61.1328 56.8442 61.8164 55.8481C62.2754 55.1841 63.0762 54.6372 63.916 54.4321C64.4238 54.3052 72.2461 54.3149 72.666 54.4517ZM93.3106 57.606C95.8106 58.2603 97.3633 60.8188 96.7285 63.27C96.2598 65.0669 94.7559 66.4536 92.9199 66.7661C90.9961 67.0981 88.8965 66.0239 88.0371 64.2563C87.8516 63.8755 87.666 63.4165 87.6367 63.2407L87.5781 62.9282H88.3594H89.1504L89.3848 63.4458C89.6875 64.1196 90.2246 64.647 90.9082 64.9692C91.6602 65.3208 92.7832 65.3208 93.5059 64.979C94.1211 64.6763 94.7168 64.0903 95.0293 63.4653C95.3516 62.8013 95.3613 61.5415 95.0488 60.8579C94.7852 60.272 94.1211 59.6177 93.5254 59.3247C92.5977 58.8755 91.2891 58.9731 90.4883 59.5396C90.3125 59.6567 90.2344 59.686 90.2832 59.5981C90.4102 59.3833 91.5137 57.8208 91.6797 57.6255C91.8652 57.4106 92.5195 57.4009 93.3106 57.606ZM80.4688 59.979C80.8496 60.1841 81.3184 60.9458 81.2207 61.1997C81.1621 61.3462 80.957 61.3657 79.4824 61.3657C77.5977 61.3657 77.2266 61.2974 76.6602 60.7993C76.3184 60.5161 75.9766 60.0376 75.9766 59.8521C75.9766 59.8228 76.9141 59.8032 78.0566 59.8032C79.8828 59.8032 80.1758 59.8228 80.4688 59.979ZM93.0469 60.8481C93.5449 61.2192 93.7012 61.5317 93.7012 62.147C93.7012 62.7622 93.5449 63.0747 93.0274 63.4556C92.6074 63.7778 91.7383 63.7388 91.2793 63.3872C91.084 63.2407 90.918 63.0747 90.918 63.0161C90.918 62.9673 91.2695 62.9282 91.6992 62.9282C92.4121 62.9282 92.5098 62.8989 92.7246 62.6841C93.0469 62.3716 93.0469 61.9224 92.7246 61.6099C92.5098 61.395 92.4121 61.3657 91.6992 61.3657C91.2695 61.3657 90.918 61.3267 90.918 61.2876C90.918 61.1704 91.2012 60.9263 91.5527 60.731C91.9336 60.5259 92.6953 60.5845 93.0469 60.8481ZM89.1699 61.2974C89.0723 61.3853 89.0625 61.3755 89.1211 61.2388C89.1504 61.1411 89.209 61.0923 89.2383 61.1216C89.2676 61.1509 89.2383 61.229 89.1699 61.2974ZM65.1465 63.4165C65.5859 64.4517 66.7969 65.2134 67.9688 65.2134C69.1406 65.2134 70.3516 64.4517 70.791 63.4165L71.0059 62.9282H71.7969H72.5879L72.5195 63.2407C72.3926 63.8755 71.875 64.7935 71.3184 65.3794C69.502 67.2837 66.4355 67.2837 64.6191 65.3794C64.0625 64.7935 63.5449 63.8755 63.418 63.2407L63.3594 62.9282H64.1406H64.9316L65.1465 63.4165ZM69.2383 63.0161C69.2383 63.1724 68.7402 63.5044 68.3496 63.6313C68.0566 63.7095 67.8809 63.7095 67.5879 63.6313C67.1973 63.5044 66.6992 63.1724 66.6992 63.0161C66.6992 62.9673 67.2559 62.9282 67.9688 62.9282C68.6816 62.9282 69.2383 62.9673 69.2383 63.0161Z" fill="#E21A43"/>
<path d="M31.6289 89.8657H33.5489V85.6357H37.0289V83.9257H33.5489V81.2407H37.9439V79.5307H31.6289V89.8657ZM40.7625 87.3907C40.7625 85.5307 41.2725 84.4207 42.5175 84.4207C42.6975 84.4207 43.1475 84.4207 43.5825 84.6157L43.8975 82.9657C43.6125 82.8007 43.2375 82.7107 42.7425 82.7107C41.9475 82.7107 41.1225 83.2357 40.7625 84.5107V82.8607H38.9325V89.8657H40.7625V87.3907ZM51.703 86.3407C51.703 84.1207 50.128 82.7107 48.148 82.7107C46.153 82.7107 44.518 84.1207 44.518 86.3407C44.518 88.5457 46.153 90.0157 48.148 90.0157C49.438 90.0157 50.773 89.5207 51.418 88.3207C50.953 88.0807 50.458 87.8107 50.023 87.5707C49.678 88.1707 48.973 88.4707 48.268 88.4707C47.233 88.4707 46.453 87.9157 46.333 86.9707H51.673C51.688 86.8057 51.703 86.5207 51.703 86.3407ZM46.318 85.7257C46.453 84.7657 47.203 84.2407 48.163 84.2407C49.063 84.2407 49.783 84.7657 49.918 85.7257H46.318ZM59.994 86.3407C59.994 84.1207 58.419 82.7107 56.439 82.7107C54.444 82.7107 52.809 84.1207 52.809 86.3407C52.809 88.5457 54.444 90.0157 56.439 90.0157C57.729 90.0157 59.064 89.5207 59.709 88.3207C59.244 88.0807 58.749 87.8107 58.314 87.5707C57.969 88.1707 57.264 88.4707 56.559 88.4707C55.524 88.4707 54.744 87.9157 54.624 86.9707H59.964C59.979 86.8057 59.994 86.5207 59.994 86.3407ZM54.609 85.7257C54.744 84.7657 55.494 84.2407 56.454 84.2407C57.354 84.2407 58.074 84.7657 58.209 85.7257H54.609ZM67.4307 81.2857H69.5457C71.3757 81.2857 72.2907 82.8457 72.2907 84.7207C72.2907 86.5807 71.3757 88.1107 69.5457 88.1107H67.4307V81.2857ZM69.5457 89.8657C72.5007 89.8657 74.2107 87.6607 74.2107 84.7207C74.2107 81.7807 72.5007 79.5307 69.5457 79.5307H65.5107V89.8657H69.5457ZM82.6405 86.3407C82.6405 84.1207 81.0655 82.7107 79.0855 82.7107C77.0905 82.7107 75.4555 84.1207 75.4555 86.3407C75.4555 88.5457 77.0905 90.0157 79.0855 90.0157C80.3755 90.0157 81.7105 89.5207 82.3555 88.3207C81.8905 88.0807 81.3955 87.8107 80.9605 87.5707C80.6155 88.1707 79.9105 88.4707 79.2055 88.4707C78.1705 88.4707 77.3905 87.9157 77.2705 86.9707H82.6105C82.6255 86.8057 82.6405 86.5207 82.6405 86.3407ZM77.2555 85.7257C77.3905 84.7657 78.1405 84.2407 79.1005 84.2407C80.0005 84.2407 80.7205 84.7657 80.8555 85.7257H77.2555ZM84.1815 89.8657H86.0115V79.0507H84.1815V89.8657ZM89.893 82.8607H88.078V89.8657H89.893V82.8607ZM87.808 80.1457C87.808 80.7907 88.348 81.2557 88.993 81.2557C89.638 81.2557 90.148 80.7907 90.148 80.1457C90.148 79.5307 89.638 79.0507 88.993 79.0507C88.348 79.0507 87.808 79.5307 87.808 80.1457ZM93.9998 89.8657H95.6198L98.5748 82.8607H96.6098L94.8098 87.5257L93.0098 82.8607H91.0598L93.9998 89.8657ZM106.327 86.3407C106.327 84.1207 104.752 82.7107 102.772 82.7107C100.777 82.7107 99.142 84.1207 99.142 86.3407C99.142 88.5457 100.777 90.0157 102.772 90.0157C104.062 90.0157 105.397 89.5207 106.042 88.3207C105.577 88.0807 105.082 87.8107 104.647 87.5707C104.302 88.1707 103.597 88.4707 102.892 88.4707C101.857 88.4707 101.077 87.9157 100.957 86.9707H106.297C106.312 86.8057 106.327 86.5207 106.327 86.3407ZM100.942 85.7257C101.077 84.7657 101.827 84.2407 102.787 84.2407C103.687 84.2407 104.407 84.7657 104.542 85.7257H100.942ZM109.698 87.3907C109.698 85.5307 110.208 84.4207 111.453 84.4207C111.633 84.4207 112.083 84.4207 112.518 84.6157L112.833 82.9657C112.548 82.8007 112.173 82.7107 111.678 82.7107C110.883 82.7107 110.058 83.2357 109.698 84.5107V82.8607H107.868V89.8657H109.698V87.3907ZM120.53 82.8607H118.58L116.825 87.2257L115.085 82.8607H113.135L115.865 89.3257L114.26 93.2857H116.195L120.53 82.8607Z" fill="#E21A43"/>
</svg>
