<svg width="170" height="20" viewBox="0 0 170 20" fill="none" xmlns="http://www.w3.org/2000/svg">
<path d="M0 13.9831C0 17.4859 3.20653 20 7.93696 20C11.8419 20 15.7152 18.1356 15.8104 14.2938C15.9057 12.4576 15.112 9.77401 9.81008 8.41808L7.20676 7.68362C5.04791 7.14689 4.85742 6.21469 4.85742 5.70621C4.85742 4.54802 6.06384 3.75706 7.68298 3.75706C9.5561 3.75706 10.5085 4.63277 10.5085 5.96045H15.1437C15.1437 2.23164 11.9689 0 7.74647 0C3.55576 0 0.222235 2.34463 0.222235 5.81921C0.222235 7.59887 1.04768 10.0565 5.87335 11.4124L8.50842 12.0621C10.699 12.6271 11.1752 13.3898 11.1435 14.2655C11.1117 15.5367 9.84183 16.3277 7.93696 16.3277C5.80985 16.3277 4.76218 15.226 4.66693 13.9831H0Z" fill="#E21A43"/>
<path d="M23.0182 10C23.0182 6.75141 25.812 4.09604 29.463 4.09604C33.0822 4.09604 35.9395 6.75141 35.9395 10C35.9395 13.2486 33.0822 15.8757 29.463 15.8757C25.812 15.8757 23.0182 13.2486 23.0182 10ZM18.383 10C18.383 15.4802 23.2722 19.9718 29.463 19.9718C35.6856 19.9718 40.5747 15.4802 40.5747 10C40.5747 4.49152 35.6856 0 29.463 0C23.2722 0 18.383 4.49152 18.383 10Z" fill="#E21A43"/>
<path d="M59.6949 5.64972C59.6949 2.34463 57.155 0.225989 53.2183 0.225989H44.4559V19.6893H53.8533C58.2027 19.6893 60.8378 16.9492 60.8378 13.7288C60.8378 12.1186 59.5996 9.97175 56.7106 9.29379C58.9964 8.53107 59.6949 6.9209 59.6949 5.64972ZM49.1228 7.9096V3.87006H52.7421C54.1072 3.87006 54.8057 4.68927 54.8057 5.90395C54.8057 7.06215 54.012 7.9096 52.7738 7.9096H49.1228ZM53.504 11.3277C55.1549 11.3277 55.9486 12.5424 55.9486 13.6441C55.9486 14.8023 55.1549 16.0452 53.5993 16.0452H49.1228V11.3277H53.504Z" fill="#E21A43"/>
<path d="M81.1202 2.99435C83.4695 2.99435 84.422 4.77401 84.422 6.41243C84.422 8.0791 83.4378 9.80226 80.9932 9.80226H76.104V2.99435H81.1202ZM82.2631 12.4294C86.2951 12.0621 87.9142 9.23729 87.9142 6.41243C87.9142 3.33333 85.9459 0.225989 81.2472 0.225989H72.707V19.6893H76.104V12.5424H78.4534L83.914 19.6893H88.0095L82.2631 12.4294Z" fill="#888888"/>
<path d="M92.4564 19.6893H105.949V16.9492H95.8217V11.4972H104.394V8.75706H95.8217V2.99435H105.632V0.225989H92.4564V19.6893Z" fill="#888888"/>
<path d="M124.407 19.6893H127.963L119.708 0.225989H116.057L107.803 19.6893H111.39L113.486 14.8305H122.312L124.407 19.6893ZM117.899 3.98305L121.169 12.1469H114.629L117.899 3.98305Z" fill="#888888"/>
<path d="M134.39 3.0226H139.533C143.819 3.0226 146.01 6.15819 146.01 10C146.01 13.8701 143.819 16.9209 139.533 16.9209H134.39V3.0226ZM139.533 19.6893C145.756 19.6893 149.375 15.5367 149.375 10C149.375 4.46328 145.756 0.225989 139.533 0.225989H131.025V19.6893H139.533Z" fill="#888888"/>
<path d="M161.587 19.6893V10.791L170 0.225989H165.968L159.872 7.9661L153.84 0.225989H149.808L158.126 10.7627V19.6893H161.587Z" fill="#888888"/>
</svg>
