<svg width="1280" height="720" viewBox="0 0 1280 720" fill="none" xmlns="http://www.w3.org/2000/svg">
  <defs>
    <linearGradient id="bg" x1="640" y1="0" x2="640" y2="720" gradientUnits="userSpaceOnUse">
      <stop stop-color="#09111F"/>
      <stop offset="0.52" stop-color="#152642"/>
      <stop offset="1" stop-color="#0B1324"/>
    </linearGradient>
    <linearGradient id="lane" x1="0" y1="0" x2="0" y2="1">
      <stop stop-color="#314366"/>
      <stop offset="1" stop-color="#1B2440"/>
    </linearGradient>
    <radialGradient id="yellowBody" cx="0" cy="0" r="1" gradientUnits="userSpaceOnUse" gradientTransform="translate(0 -20) rotate(68) scale(82 95)">
      <stop stop-color="#FFFDF6"/>
      <stop offset="0.55" stop-color="#F5DF85"/>
      <stop offset="1" stop-color="#F3D166"/>
    </radialGradient>
    <radialGradient id="blueBody" cx="0" cy="0" r="1" gradientUnits="userSpaceOnUse" gradientTransform="translate(0 -20) rotate(68) scale(82 95)">
      <stop stop-color="#FFFFFF"/>
      <stop offset="0.55" stop-color="#DDF4FF"/>
      <stop offset="1" stop-color="#BEE8FF"/>
    </radialGradient>
  </defs>

  <rect width="1280" height="720" fill="url(#bg)"/>
  <circle cx="1060" cy="120" r="180" fill="#1FB6FF" fill-opacity="0.08"/>
  <circle cx="220" cy="620" r="220" fill="#F59E0B" fill-opacity="0.10"/>

  <g opacity="0.95">
    <rect x="90" y="210" width="1100" height="126" rx="42" fill="#FFFFFF" fill-opacity="0.05"/>
    <rect x="90" y="410" width="1100" height="126" rx="42" fill="#FFFFFF" fill-opacity="0.05"/>
    <rect x="112" y="235" width="1056" height="78" rx="34" fill="url(#lane)"/>
    <rect x="112" y="435" width="1056" height="78" rx="34" fill="url(#lane)"/>
    <path d="M128 305H1128" stroke="#FFFFFF" stroke-opacity="0.16" stroke-width="8" stroke-dasharray="28 28"/>
    <path d="M128 505H1128" stroke="#FFFFFF" stroke-opacity="0.16" stroke-width="8" stroke-dasharray="28 28"/>
  </g>

  <g transform="translate(350 290)">
    <ellipse cx="10" cy="92" rx="68" ry="18" fill="#020817" fill-opacity="0.4"/>
    <path d="M-45 8C-70 -8 -88 -4 -92 20C-70 28 -54 14 -45 8Z" fill="#FFF7DA"/>
    <path d="M-52 20C-78 18 -92 34 -84 54C-60 52 -48 34 -52 20Z" fill="#FFF2C0"/>
    <ellipse cx="0" cy="18" rx="52" ry="42" fill="url(#yellowBody)"/>
    <path d="M-8 26C18 20 42 32 42 52C26 68 -2 70 -28 54C-32 42 -28 32 -8 26Z" fill="#FFF3C2"/>
    <path d="M38 -18C72 -18 90 4 86 32C72 54 40 60 18 42C10 10 12 -6 38 -18Z" fill="url(#yellowBody)"/>
    <circle cx="30" cy="-36" r="12" fill="#EF4444"/>
    <circle cx="48" cy="-49" r="16" fill="#EF4444"/>
    <circle cx="68" cy="-34" r="12" fill="#EF4444"/>
    <path d="M78 -6L114 6L80 20C84 12 84 2 78 -6Z" fill="#F59E0B"/>
    <circle cx="36" cy="-8" r="14" fill="#6B3F14"/>
    <circle cx="58" cy="-4" r="13" fill="#6B3F14"/>
    <circle cx="36" cy="-8" r="8" fill="#FFF"/>
    <circle cx="58" cy="-4" r="8" fill="#FFF"/>
    <circle cx="39" cy="-7" r="3.8" fill="#0F172A"/>
    <circle cx="61" cy="-3" r="3.8" fill="#0F172A"/>
    <rect x="24" y="18" width="34" height="36" rx="8" fill="#F59E0B"/>
    <path d="M6 56L-2 100" stroke="#F59E0B" stroke-width="8" stroke-linecap="round"/>
    <path d="M50 56L58 100" stroke="#F59E0B" stroke-width="8" stroke-linecap="round"/>
    <path d="M-10 100H12M54 100H76" stroke="#F59E0B" stroke-width="5" stroke-linecap="round"/>
  </g>

  <g transform="translate(760 490)">
    <ellipse cx="10" cy="92" rx="68" ry="18" fill="#020817" fill-opacity="0.4"/>
    <path d="M-45 8C-70 -8 -88 -4 -92 20C-70 28 -54 14 -45 8Z" fill="#EEF9FF"/>
    <path d="M-52 20C-78 18 -92 34 -84 54C-60 52 -48 34 -52 20Z" fill="#D9F1FF"/>
    <ellipse cx="0" cy="18" rx="52" ry="42" fill="url(#blueBody)"/>
    <path d="M-8 26C18 20 42 32 42 52C26 68 -2 70 -28 54C-32 42 -28 32 -8 26Z" fill="#D0EEFF"/>
    <path d="M38 -18C72 -18 90 4 86 32C72 54 40 60 18 42C10 10 12 -6 38 -18Z" fill="url(#blueBody)"/>
    <circle cx="30" cy="-36" r="12" fill="#FB7185"/>
    <circle cx="48" cy="-49" r="16" fill="#FB7185"/>
    <circle cx="68" cy="-34" r="12" fill="#FB7185"/>
    <path d="M78 -6L114 6L80 20C84 12 84 2 78 -6Z" fill="#38BDF8"/>
    <circle cx="36" cy="-8" r="14" fill="#10435E"/>
    <circle cx="58" cy="-4" r="13" fill="#10435E"/>
    <circle cx="36" cy="-8" r="8" fill="#FFF"/>
    <circle cx="58" cy="-4" r="8" fill="#FFF"/>
    <circle cx="39" cy="-7" r="3.8" fill="#0F172A"/>
    <circle cx="61" cy="-3" r="3.8" fill="#0F172A"/>
    <rect x="24" y="18" width="34" height="36" rx="8" fill="#0EA5E9"/>
    <path d="M6 56L-2 100" stroke="#38BDF8" stroke-width="8" stroke-linecap="round"/>
    <path d="M50 56L58 100" stroke="#38BDF8" stroke-width="8" stroke-linecap="round"/>
    <path d="M-10 100H12M54 100H76" stroke="#38BDF8" stroke-width="5" stroke-linecap="round"/>
  </g>
</svg>
