<svg width="17" height="16" viewBox="0 0 17 16" fill="none" xmlns="http://www.w3.org/2000/svg">
<path d="M2.96936 0.0427663C2.23979 0.163667 1.63528 0.488847 1.06413 1.06C0.476306 1.64782 0.167802 2.23148 0.0469011 2.99857C-0.0156337 3.37378 -0.0156337 12.6289 0.0469011 13.0041C0.167802 13.7712 0.476306 14.3549 1.06413 14.9427C1.65613 15.5347 2.24812 15.8432 3.02772 15.9641C3.22367 15.9933 4.87041 16.0058 8.19309 15.9975L13.0708 15.985L13.371 15.8891C14.0297 15.689 14.5216 15.3971 14.9552 14.9552C15.4179 14.4883 15.6973 14.0172 15.889 13.3793C15.9849 13.0708 15.9849 13.025 16.0016 10.5569C16.0099 8.91019 15.9974 7.99302 15.9724 7.88462C15.9474 7.79707 15.8599 7.64699 15.7806 7.55527C15.3888 7.09668 14.6675 7.16756 14.3549 7.69702L14.2381 7.89713L14.1964 12.8999L14.063 13.1792C13.8796 13.5711 13.6086 13.8463 13.2209 14.038L12.9082 14.1923H3.10693L2.82761 14.0589C2.43573 13.8755 2.16058 13.6045 1.9688 13.2168L1.81455 12.9041V3.1028L1.94796 2.82348C2.13139 2.43159 2.40238 2.15644 2.79009 1.96467L3.10277 1.81041L8.23478 1.76873L8.42239 1.6645C8.70171 1.50608 8.85179 1.26428 8.87264 0.939098C8.89348 0.6431 8.81427 0.43882 8.60165 0.238708C8.34318 -0.00726154 8.40571 -0.00309256 5.68337 0.00107643C4.31177 0.00524541 3.09026 0.0219213 2.96936 0.0427663Z" fill="#666666"/>
<path d="M15.739 0.922422C15.593 0.959943 15.0969 1.43938 11.7909 4.74121L8.00549 8.52248L6.45463 6.97162C4.7787 5.30402 4.7787 5.30402 4.37847 5.34154C4.09498 5.37073 3.8782 5.4958 3.72394 5.72092C3.56552 5.95438 3.51966 6.20869 3.58637 6.463C3.62806 6.62976 3.82817 6.84238 5.5583 8.58084C6.85068 9.87323 7.53856 10.5361 7.65113 10.5903C7.85541 10.6862 8.12222 10.6903 8.33067 10.607C8.52244 10.5278 16.6811 2.3899 16.8062 2.15644C16.9063 1.95633 16.9104 1.61447 16.8062 1.38935C16.7103 1.17673 16.4685 0.976618 16.2351 0.918253C16.0266 0.864056 15.9641 0.864056 15.739 0.922422Z" fill="#666666"/>
</svg>
